<mxfile host="app.diagrams.net" agent="Mozilla/5.0 (Windows NT 10.0; Win64; x64) AppleWebKit/537.36 (KHTML, like Gecko) Chrome/131.0.0.0 Safari/537.36" version="25.0.3">
  <diagram name="Page-1" id="oWjM9BGwYZ12sk9pu0H5">
    <mxGraphModel grid="1" page="1" gridSize="10" guides="1" tooltips="1" connect="1" arrows="1" fold="1" pageScale="1" pageWidth="827" pageHeight="1169" math="0" shadow="0">
      <root>
        <mxCell id="0" />
        <mxCell id="1" parent="0" />
        <mxCell id="X_6Zg6RzUph1M3u_H0BN-3" style="edgeStyle=orthogonalEdgeStyle;rounded=0;orthogonalLoop=1;jettySize=auto;html=1;entryX=0.5;entryY=0;entryDx=0;entryDy=0;" edge="1" parent="1" source="X_6Zg6RzUph1M3u_H0BN-1" target="X_6Zg6RzUph1M3u_H0BN-2">
          <mxGeometry relative="1" as="geometry" />
        </mxCell>
        <mxCell id="X_6Zg6RzUph1M3u_H0BN-1" value="START" style="ellipse;whiteSpace=wrap;html=1;" vertex="1" parent="1">
          <mxGeometry x="360" y="40" width="120" height="80" as="geometry" />
        </mxCell>
        <mxCell id="X_6Zg6RzUph1M3u_H0BN-5" style="edgeStyle=orthogonalEdgeStyle;rounded=0;orthogonalLoop=1;jettySize=auto;html=1;entryX=0.5;entryY=0;entryDx=0;entryDy=0;" edge="1" parent="1" source="X_6Zg6RzUph1M3u_H0BN-2" target="X_6Zg6RzUph1M3u_H0BN-4">
          <mxGeometry relative="1" as="geometry" />
        </mxCell>
        <mxCell id="X_6Zg6RzUph1M3u_H0BN-2" value="INPUT a, b;" style="shape=parallelogram;perimeter=parallelogramPerimeter;whiteSpace=wrap;html=1;fixedSize=1;" vertex="1" parent="1">
          <mxGeometry x="360" y="170" width="120" height="60" as="geometry" />
        </mxCell>
        <mxCell id="X_6Zg6RzUph1M3u_H0BN-7" style="edgeStyle=orthogonalEdgeStyle;rounded=0;orthogonalLoop=1;jettySize=auto;html=1;entryX=1;entryY=0.5;entryDx=0;entryDy=0;entryPerimeter=0;" edge="1" parent="1" source="X_6Zg6RzUph1M3u_H0BN-4" target="jMxkCRKaX1O7CTFpnMg4-2">
          <mxGeometry relative="1" as="geometry">
            <mxPoint x="530" y="470" as="targetPoint" />
          </mxGeometry>
        </mxCell>
        <mxCell id="X_6Zg6RzUph1M3u_H0BN-10" style="edgeStyle=orthogonalEdgeStyle;rounded=0;orthogonalLoop=1;jettySize=auto;html=1;" edge="1" parent="1" source="X_6Zg6RzUph1M3u_H0BN-4">
          <mxGeometry relative="1" as="geometry">
            <mxPoint x="300" y="470" as="targetPoint" />
          </mxGeometry>
        </mxCell>
        <mxCell id="X_6Zg6RzUph1M3u_H0BN-4" value="a&amp;gt;b" style="rhombus;whiteSpace=wrap;html=1;" vertex="1" parent="1">
          <mxGeometry x="380" y="420" width="80" height="80" as="geometry" />
        </mxCell>
        <mxCell id="X_6Zg6RzUph1M3u_H0BN-15" style="edgeStyle=orthogonalEdgeStyle;rounded=0;orthogonalLoop=1;jettySize=auto;html=1;entryX=1;entryY=0.5;entryDx=0;entryDy=0;exitX=0.3;exitY=0.05;exitDx=0;exitDy=0;exitPerimeter=0;" edge="1" parent="1" source="jMxkCRKaX1O7CTFpnMg4-2" target="X_6Zg6RzUph1M3u_H0BN-14">
          <mxGeometry relative="1" as="geometry">
            <mxPoint x="590" y="640" as="targetPoint" />
            <Array as="points">
              <mxPoint x="590" y="504" />
              <mxPoint x="590" y="590" />
            </Array>
            <mxPoint x="580" y="520" as="sourcePoint" />
          </mxGeometry>
        </mxCell>
        <mxCell id="X_6Zg6RzUph1M3u_H0BN-8" value="true" style="text;html=1;align=center;verticalAlign=middle;resizable=0;points=[];autosize=1;strokeColor=none;fillColor=none;" vertex="1" parent="1">
          <mxGeometry x="475" y="428" width="40" height="30" as="geometry" />
        </mxCell>
        <mxCell id="X_6Zg6RzUph1M3u_H0BN-13" style="edgeStyle=orthogonalEdgeStyle;rounded=0;orthogonalLoop=1;jettySize=auto;html=1;exitX=0.467;exitY=0.95;exitDx=0;exitDy=0;exitPerimeter=0;" edge="1" parent="1" source="jMxkCRKaX1O7CTFpnMg4-1" target="X_6Zg6RzUph1M3u_H0BN-14">
          <mxGeometry relative="1" as="geometry">
            <mxPoint x="390" y="590" as="targetPoint" />
            <Array as="points">
              <mxPoint x="268" y="530" />
              <mxPoint x="270" y="530" />
              <mxPoint x="270" y="590" />
            </Array>
            <mxPoint x="240" y="530" as="sourcePoint" />
          </mxGeometry>
        </mxCell>
        <mxCell id="X_6Zg6RzUph1M3u_H0BN-11" value="false" style="text;html=1;align=center;verticalAlign=middle;resizable=0;points=[];autosize=1;strokeColor=none;fillColor=none;" vertex="1" parent="1">
          <mxGeometry x="310" y="428" width="50" height="30" as="geometry" />
        </mxCell>
        <mxCell id="X_6Zg6RzUph1M3u_H0BN-14" value="END" style="ellipse;whiteSpace=wrap;html=1;" vertex="1" parent="1">
          <mxGeometry x="360" y="550" width="120" height="80" as="geometry" />
        </mxCell>
        <mxCell id="X_6Zg6RzUph1M3u_H0BN-17" style="edgeStyle=orthogonalEdgeStyle;rounded=0;orthogonalLoop=1;jettySize=auto;html=1;entryX=1;entryY=0.5;entryDx=0;entryDy=0;" edge="1" parent="1" target="X_6Zg6RzUph1M3u_H0BN-14">
          <mxGeometry relative="1" as="geometry">
            <mxPoint x="600" y="640.6666870117188" as="targetPoint" />
            <mxPoint x="450" y="310" as="sourcePoint" />
            <Array as="points">
              <mxPoint x="660" y="310" />
              <mxPoint x="660" y="590" />
            </Array>
          </mxGeometry>
        </mxCell>
        <mxCell id="X_6Zg6RzUph1M3u_H0BN-16" value="a=b" style="rhombus;whiteSpace=wrap;html=1;" vertex="1" parent="1">
          <mxGeometry x="380" y="270" width="80" height="80" as="geometry" />
        </mxCell>
        <mxCell id="X_6Zg6RzUph1M3u_H0BN-18" value="false" style="text;html=1;align=center;verticalAlign=middle;resizable=0;points=[];autosize=1;strokeColor=none;fillColor=none;" vertex="1" parent="1">
          <mxGeometry x="425" y="370" width="50" height="30" as="geometry" />
        </mxCell>
        <mxCell id="X_6Zg6RzUph1M3u_H0BN-19" value="true" style="text;html=1;align=center;verticalAlign=middle;resizable=0;points=[];autosize=1;strokeColor=none;fillColor=none;" vertex="1" parent="1">
          <mxGeometry x="520" y="280" width="40" height="30" as="geometry" />
        </mxCell>
        <mxCell id="jMxkCRKaX1O7CTFpnMg4-1" value="in ra a" style="shape=or;whiteSpace=wrap;html=1;" vertex="1" parent="1">
          <mxGeometry x="240" y="428" width="60" height="80" as="geometry" />
        </mxCell>
        <mxCell id="jMxkCRKaX1O7CTFpnMg4-2" value="in ra b" style="shape=or;whiteSpace=wrap;html=1;direction=west;" vertex="1" parent="1">
          <mxGeometry x="550" y="428" width="60" height="80" as="geometry" />
        </mxCell>
      </root>
    </mxGraphModel>
  </diagram>
</mxfile>
